HIERARCHY
ROOT Hips
{
 OFFSET 0.000000 0.000000 0.000000
 CHANNELS 6 Xposition Yposition Zposition Yrotation Xrotation Zrotation
 JOINT Chest
 {
  OFFSET 0.000000 10.932484 0.001155
  CHANNELS 3 Yrotation Xrotation Zrotation
  JOINT Chest2
  {
   OFFSET 0.000000 12.093805 -0.002099
   CHANNELS 3 Yrotation Xrotation Zrotation
   JOINT Chest3
   {
    OFFSET 0.000000 10.927800 0.000000
    CHANNELS 3 Yrotation Xrotation Zrotation
    JOINT Chest4
    {
     OFFSET 0.000000 10.927800 0.000000
     CHANNELS 3 Yrotation Xrotation Zrotation
     JOINT Neck
     {
      OFFSET 0.000000 15.355144 0.000000
      CHANNELS 3 Yrotation Xrotation Zrotation
      JOINT Head
      {
       OFFSET 0.000000 10.170446 -0.004991
       CHANNELS 3 Yrotation Xrotation Zrotation
       End Site
       {
        OFFSET 0.000000 19.463738 -0.002607
       }
      }
     }
     JOINT RightCollar
     {
      OFFSET -3.333126 8.566406 0.000000
      CHANNELS 3 Yrotation Xrotation Zrotation
      JOINT RightShoulder
      {
       OFFSET -15.529370 0.000000 0.000000
       CHANNELS 3 Yrotation Xrotation Zrotation
       JOINT RightElbow
       {
        OFFSET 0.000000 -33.145213 0.000000
        CHANNELS 3 Yrotation Xrotation Zrotation
        JOINT RightWrist
        {
         OFFSET 0.000000 -27.120720 -0.000000
         CHANNELS 3 Yrotation Xrotation Zrotation
         End Site
         {
          OFFSET 0.000000 -20.306483 0.000000
         }
        }
       }
      }
     }
     JOINT LeftCollar
     {
      OFFSET 3.333126 8.566406 0.000000
      CHANNELS 3 Yrotation Xrotation Zrotation
      JOINT LeftShoulder
      {
       OFFSET 15.529370 0.000000 0.000000
       CHANNELS 3 Yrotation Xrotation Zrotation
       JOINT LeftElbow
       {
        OFFSET 0.000000 -33.145213 0.000000
        CHANNELS 3 Yrotation Xrotation Zrotation
        JOINT LeftWrist
        {
         OFFSET 0.000000 -27.120720 -0.000000
         CHANNELS 3 Yrotation Xrotation Zrotation
         End Site
         {
          OFFSET 0.000000 -20.306483 0.000000
         }
        }
       }
      }
     }
    }
   }
  }
 }
 JOINT RightHip
 {
  OFFSET -8.869179 -0.005661 -0.000578
  CHANNELS 3 Yrotation Xrotation Zrotation
  JOINT RightKnee
  {
   OFFSET 0.000000 -45.835245 0.000547
   CHANNELS 3 Yrotation Xrotation Zrotation
   JOINT RightAnkle
   {
    OFFSET 0.000000 -44.890236 0.000924
    CHANNELS 3 Yrotation Xrotation Zrotation
    JOINT RightToe
    {
     OFFSET 0.000000 -8.082775 18.351045
     CHANNELS 3 Yrotation Xrotation Zrotation
     End Site
     {
      OFFSET 0.000000 -1.681997 7.345339
     }
    }
   }
  }
 }
 JOINT LeftHip
 {
  OFFSET 8.869179 -0.005661 -0.000578
  CHANNELS 3 Yrotation Xrotation Zrotation
  JOINT LeftKnee
  {
   OFFSET 0.000000 -45.835245 0.000547
   CHANNELS 3 Yrotation Xrotation Zrotation
   JOINT LeftAnkle
   {
    OFFSET 0.000000 -44.890236 0.000924
    CHANNELS 3 Yrotation Xrotation Zrotation
    JOINT LeftToe
    {
     OFFSET 0.000000 -8.082775 18.351045
     CHANNELS 3 Yrotation Xrotation Zrotation
     End Site
     {
      OFFSET 0.000000 -1.681997 7.345339
     }
    }
   }
  }
 }
}
MOTION
Frames: 11
Frame Time: 0.008333
279.409854 99.860074 110.063367 -55.798420 3.063387 -1.039490 -0.520193 6.560148 0.668360 -0.261523 2.905931 0.129424 -0.261523 2.905931 0.129424 -0.196716 2.179393 0.098292 0.797694 20.520894 -0.424150 1.578193 1.934048 -1.010558 -5.561900 -1.094773 7.822723 8.923382 -8.063952 -14.077551 5.190265 -13.186550 5.195736 25.928729 1.815627 -20.505683 1.052096 -0.738720 -6.006913 -12.564074 -12.885660 17.886059 -3.453216 -5.657128 3.509889 -21.458566 -5.918337 6.626161 -14.491448 -9.199032 -0.065020 2.157961 13.376037 0.872246 0.043381 -6.893031 -0.586763 -0.079730 0.602451 -0.091710 8.964494 -13.414616 6.593437 -3.215048 18.379280 -0.829103 7.527284 -7.668143 -3.629778 -0.016086 -0.643630 0.278568
279.478195 99.840658 109.825363 -55.526326 3.325864 -0.964628 -0.566751 6.613337 0.676301 -0.279263 2.932375 0.154181 -0.279263 2.932375 0.154181 -0.210142 2.199211 0.116951 0.893703 20.705766 -0.379852 1.737331 2.278086 -0.955947 -5.541870 -1.094209 7.791761 8.958614 -8.182542 -14.155890 5.062321 -13.328402 5.254606 25.733986 1.712836 -20.644643 1.007063 -0.713238 -6.027801 -12.792067 -12.884806 17.985465 -3.602983 -6.231379 3.106240 -21.501530 -6.061690 6.932912 -14.616965 -9.628402 0.013922 2.122354 13.575699 0.942813 -0.028314 -6.945841 -0.698733 -0.065931 0.592307 -0.100131 8.861520 -14.227215 6.637523 -3.134198 19.099134 -0.862700 7.155782 -8.013782 -3.753539 -0.026648 -0.456434 0.246367
279.550913 99.832882 109.611239 -55.262634 3.577118 -0.858611 -0.610275 6.676340 0.652243 -0.294921 2.963148 0.175946 -0.294921 2.963148 0.175946 -0.221995 2.222277 0.133361 0.980087 20.878809 -0.330512 1.877612 2.599901 -0.889196 -5.520792 -1.085671 7.774911 8.993167 -8.319059 -14.245738 4.919022 -13.446233 5.326429 25.497306 1.585107 -20.792977 0.954505 -0.699949 -6.042106 -13.033044 -12.889349 18.098482 -3.714031 -6.727567 2.828329 -21.493927 -6.336813 7.191314 -14.699619 -10.058541 0.040825 2.063525 13.775435 1.011642 -0.103398 -6.955584 -0.794700 -0.049010 0.542963 -0.104551 8.820160 -15.009616 6.621836 -3.077344 19.804634 -0.901744 6.707607 -8.398727 -3.825483 -0.028285 -0.259015 0.213242
279.619813 99.835063 109.408442 -55.021631 3.820244 -0.767442 -0.645014 6.746078 0.639009 -0.307856 2.996433 0.194574 -0.307856 2.996433 0.194574 -0.231794 2.247227 0.147408 1.057285 21.037331 -0.280734 2.001286 2.894571 -0.818944 -5.501196 -1.073674 7.766484 9.049576 -8.472759 -14.344273 4.761210 -13.535287 5.391629 25.220850 1.438993 -20.923553 0.914229 -0.705158 -6.066922 -13.291442 -12.870508 18.213827 -3.880612 -7.304919 2.457526 -21.404396 -6.507873 7.545735 -14.748573 -10.478014 0.069373 1.997780 13.979545 1.086933 -0.181105 -6.972564 -0.881451 -0.031847 0.498106 -0.112139 8.857153 -15.754778 6.596877 -3.074326 20.470185 -0.948306 6.446370 -8.707458 -3.916186 -0.021888 -0.125424 0.197784
279.688248 99.844544 109.211667 -54.798565 4.050644 -0.678024 -0.669022 6.822267 0.629727 -0.317198 3.032527 0.211173 -0.317198 3.032527 0.211173 -0.238892 2.274287 0.159918 1.125726 21.194768 -0.229525 2.108717 3.187035 -0.743374 -5.480792 -1.049038 7.761327 9.114858 -8.642039 -14.448226 4.581703 -13.600621 5.467864 24.904513 1.277881 -21.061741 0.876956 -0.717193 -6.089233 -13.563577 -12.847039 18.324665 -3.991643 -7.811915 2.211565 -21.305521 -6.786637 7.863152 -14.767190 -10.881711 0.093207 1.926019 14.171738 1.154873 -0.261281 -6.969773 -0.957248 -0.016816 0.444761 -0.119191 8.979692 -16.455663 6.549013 -3.147850 21.109713 -1.020641 6.368656 -8.951197 -4.043936 -0.015182 -0.052668 0.217745
279.754890 99.858785 109.019376 -54.605512 4.272674 -0.592280 -0.682934 6.902344 0.622336 -0.321836 3.069016 0.224778 -0.321836 3.069016 0.224778 -0.242449 2.301645 0.170161 1.183221 21.350600 -0.172838 2.194817 3.476210 -0.654590 -5.458926 -1.025813 7.762142 9.186997 -8.809971 -14.552060 4.396034 -13.645606 5.525565 24.547506 1.119899 -21.183804 0.843367 -0.727278 -6.116343 -13.847808 -12.813863 18.433884 -4.123100 -8.382626 1.887834 -21.166552 -6.969434 8.271511 -14.754846 -11.278134 0.113565 1.864457 14.359844 1.227115 -0.350823 -6.948604 -1.027685 -0.003529 0.381562 -0.127316 9.179329 -17.121286 6.476442 -3.267856 21.748220 -1.099062 5.865219 -9.210467 -4.154770 -0.007225 -0.027205 0.285440
279.822291 99.876375 108.832344 -54.437386 4.482819 -0.500060 -0.688819 6.987307 0.605510 -0.322180 3.106443 0.235050 -0.322180 3.106443 0.235050 -0.242771 2.329709 0.177883 1.232104 21.516651 -0.110119 2.263604 3.784081 -0.552142 -5.422221 -0.998038 7.782088 9.258913 -8.981309 -14.654655 4.210652 -13.660360 5.557558 24.152099 0.956288 -21.310937 0.821285 -0.723585 -6.130109 -14.140382 -12.805987 18.528584 -4.196666 -8.872294 1.675393 -21.065404 -7.260122 8.648644 -14.730887 -11.661856 0.123592 1.816758 14.529935 1.292543 -0.433624 -6.881822 -1.092778 0.006536 0.291232 -0.131364 9.434677 -17.751836 6.374466 -3.414748 22.398050 -1.180028 5.491241 -9.427053 -4.307845 0.001023 -0.053677 0.368847
279.888162 99.894571 108.645048 -54.301730 4.690709 -0.420958 -0.681655 7.070380 0.602212 -0.317374 3.143140 0.244592 -0.317374 3.143140 0.244592 -0.239230 2.357229 0.185032 1.270533 21.685071 -0.047871 2.313757 4.096186 -0.447485 -5.389919 -0.970339 7.799110 9.346542 -9.148942 -14.749232 4.032866 -13.638021 5.574349 23.726536 0.791981 -21.446585 0.803382 -0.709016 -6.149502 -14.433160 -12.807313 18.601195 -4.267075 -9.411088 1.393298 -20.972547 -7.458540 9.100555 -14.713495 -12.056571 0.148754 1.808805 14.730229 1.366219 -0.514680 -6.851750 -1.162637 0.015076 0.226519 -0.134236 9.720629 -18.366961 6.275982 -3.537646 23.075890 -1.259000 5.460148 -9.584348 -4.490896 0.009384 -0.123941 0.420706
279.957503 99.912763 108.460589 -54.186079 4.890011 -0.344690 -0.666476 7.151312 0.596782 -0.309665 3.179396 0.251484 -0.309665 3.179396 0.251484 -0.233499 2.384421 0.190177 1.310213 21.870747 0.017234 2.365420 4.440281 -0.337703 -5.359705 -0.922251 7.823687 9.450035 -9.321598 -14.833429 3.852098 -13.604080 5.570777 23.296789 0.635412 -21.594154 0.787190 -0.679288 -6.153207 -14.713509 -12.839973 18.638782 -4.254885 -9.848590 1.245509 -20.960448 -7.775533 9.490224 -14.720502 -12.445066 0.182295 1.840309 14.927940 1.433011 -0.593103 -6.817395 -1.225836 0.021456 0.166492 -0.136454 10.025016 -18.958959 6.172355 -3.628484 23.782332 -1.338430 5.267478 -9.749954 -4.588133 0.015501 -0.214534 0.422895
280.029458 99.928600 108.274736 -54.096222 5.087459 -0.271427 -0.641401 7.231167 0.591587 -0.296899 3.214277 0.257577 -0.296899 3.214277 0.257577 -0.223972 2.410584 0.194695 1.347437 22.061475 0.088484 2.411130 4.793595 -0.216026 -5.336906 -0.880753 7.845758 9.556983 -9.477133 -14.903449 3.662249 -13.553232 5.556559 22.892157 0.496818 -21.743989 0.779396 -0.632773 -6.161694 -14.986604 -12.885970 18.650763 -4.232316 -10.328523 1.051911 -20.974363 -8.009607 9.902346 -14.757425 -12.830579 0.229793 1.903266 15.111320 1.494921 -0.655100 -6.751156 -1.288512 0.028193 0.092179 -0.139330 10.351390 -19.533007 6.068243 -3.692345 24.500570 -1.423538 4.998166 -9.873114 -4.603641 0.020230 -0.347802 0.378982
280.105874 99.941397 108.089129 -54.026445 5.279542 -0.207900 -0.611032 7.304946 0.586548 -0.282610 3.247388 0.260428 -0.282610 3.247388 0.260428 -0.213286 2.435422 0.196772 1.390718 22.250884 0.166457 2.466220 5.144401 -0.083914 -5.307844 -0.829601 7.876756 9.667035 -9.618925 -14.964382 3.454464 -13.493671 5.519972 22.526027 0.355456 -21.895368 0.786996 -0.573331 -6.153619 -15.242839 -12.956158 18.628438 -4.123961 -10.710473 0.970226 -21.071814 -8.338450 10.243628 -14.831861 -13.213530 0.298349 2.002865 15.301277 1.546884 -0.706064 -6.716922 -1.346510 0.032139 0.051292 -0.140943 10.701718 -20.100916 5.964497 -3.744034 25.259104 -1.511889 4.993876 -9.968270 -4.613860 0.024856 -0.488116 0.310243
